<?xml version="1.0" encoding="UTF-8"?>
<svg width="119px" height="50px" viewBox="0 0 119 50" version="1.1" xmlns="http://www.w3.org/2000/svg" xmlns:xlink="http://www.w3.org/1999/xlink">
    <!-- Generator: Sketch 51.3 (57544) - http://www.bohemiancoding.com/sketch -->
    <title>cnt-logo-50px-black</title>
    <desc>Created with Sketch.</desc>
    <defs>
        <polygon id="path-1" points="0 39.5364635 107.822938 39.5364635 107.822938 0.045038961 0 0.045038961"></polygon>
    </defs>
    <g id="cnt-logo-50px-black" stroke="none" stroke-width="1" fill="none" fill-rule="evenodd">
        <rect id="Rectangle" fill-rule="nonzero" x="1" y="0" width="118" height="50"></rect>
        <g id="Group-47" transform="translate(5.000000, 5.000000)">
            <g id="Group-46" transform="translate(0.000000, 0.158757)">
                <mask id="mask-2" fill="white">
                    <use xlink:href="#path-1"></use>
                </mask>
                <g id="Clip-20"></g>
                <polygon id="Fill-1" fill="#000000" mask="url(#mask-2)" points="0.10242301 0.476985015 0.104879197 4.1017043 6.09940896 4.1017043 6.09940896 39.1045175 11.760716 39.1045175 11.760716 4.1017043 17.5886344 4.1017043 17.5886344 0.469240759"></polygon>
                <path d="M0,0.375188811 L0.00266086957,4.2037043 L5.99698595,4.2037043 L5.99698595,39.2065175 L11.8629753,39.2065175 L11.8629753,4.2037043 L17.6910983,4.2037043 L17.6910983,0.367240759 L0,0.375188811 Z M0.204886957,0.578985015 L17.4864161,0.571240759 L17.4864161,3.99990809 L11.658293,3.99990809 L11.658293,39.0027213 L6.20166823,39.0027213 L6.20166823,3.99990809 L0.207138462,3.99990809 L0.204886957,0.578985015 Z" id="Fill-2" fill="#000000" mask="url(#mask-2)"></path>
                <path d="M19.3717649,12.0322298 L19.3717649,10.3814805 L14.3566399,10.3814805 L14.3566399,39.02198 L19.6206586,39.02198 C19.6206586,39.02198 19.6896365,19.9562338 19.6206586,17.8923896 C19.5375576,15.4162657 23.267892,15.2511908 23.267892,15.2511908 L25.0087148,15.2511908 L25.0087148,10.1338681 C22.1902399,9.72118082 19.3717649,12.0322298 19.3717649,12.0322298" id="Fill-3" fill="#000000" mask="url(#mask-2)"></path>
                <path d="M14.458981,38.9201023 L19.5187268,38.9201023 C19.5240486,37.4136408 19.5840205,19.856394 19.5185221,17.8958745 C19.4329649,15.348422 23.2251134,15.1511473 23.263389,15.1493131 L24.9063736,15.1493131 L24.9063736,10.2227437 C22.1947429,9.88179261 19.4642813,12.0882941 19.4368539,12.1109155 L19.2694238,12.2480703 L19.2694238,10.483399 L14.458981,10.483399 L14.458981,38.9201023 Z M19.7225904,39.1238985 L14.2542987,39.1238985 L14.2542987,10.2796028 L19.4741061,10.2796028 L19.4741061,11.8251932 C20.1270425,11.3417886 22.585072,9.67493946 25.0236566,10.0330094 L25.1110559,10.0458486 L25.1110559,15.3531093 L23.267892,15.3531093 C23.263389,15.3533131 22.3419094,15.3981483 21.4456058,15.7399145 C20.2697061,16.1884699 19.6902506,16.9115389 19.7229997,17.8891493 C19.7911589,19.9311872 19.7238185,38.8316547 19.7229997,39.022408 L19.7225904,39.1238985 Z" id="Fill-5" fill="#000000" mask="url(#mask-2)"></path>
                <polygon id="Fill-7" fill="#000000" mask="url(#mask-2)" points="52.534387 10.3814601 49.5501195 28.7047768 46.3171629 10.2989227 40.8460058 10.2989227 46.4829556 39.1044971 50.710668 39.1044971 56.0160325 10.3814601"></polygon>
                <path d="M46.5673256,39.0027009 L50.6255611,39.0027009 L55.8932641,10.4834601 L52.6214179,10.4834601 L49.5540494,29.3181015 L46.2312373,10.4009227 L40.9702888,10.4009227 L46.5673256,39.0027009 Z M50.7960614,39.2064971 L46.3986674,39.2064971 L46.3824975,39.1241634 L40.7218045,10.1971265 L46.4031704,10.1971265 L46.4181122,10.2814981 L49.5464761,28.0916559 L52.447438,10.2796639 L56.1390875,10.2796639 L50.7960614,39.2064971 Z" id="Fill-9" fill="#000000" mask="url(#mask-2)"></path>
                <path d="M63.5351587,12.1148284 C63.5351587,12.1148284 65.7731546,12.1973658 65.8562557,16.324239 C65.9389473,20.4511121 65.8562557,22.6794198 65.8562557,22.6794198 L61.213857,22.6794198 L61.213857,16.2417015 C61.213857,16.2417015 61.1311654,12.1148284 63.5351587,12.1148284 Z M66.0216389,27.3017215 L66.0216389,33.6571061 C66.0216389,33.6571061 65.9389473,37.1234757 63.7007466,37.0411421 C61.4627506,36.9586046 61.213857,33.6571061 61.213857,33.6571061 L61.213857,24.9906725 L71.6587934,24.9906725 C72.487552,9.39109211 63.6176456,9.96885435 63.6176456,9.96885435 C54.9966329,11.0418414 55.5769072,22.2669363 55.5769072,22.2669363 C55.5769072,22.2669363 54.499255,39.6823409 63.7838476,39.352191 C73.0678262,39.0220412 71.5756924,27.3017215 71.5756924,27.3017215 L66.0216389,27.3017215 Z" id="Fill-11" fill="#000000" mask="url(#mask-2)"></path>
                <path d="M61.3162391,22.5776032 L65.7570257,22.5776032 C65.7715581,22.1035732 65.8260036,19.926826 65.7539555,16.3261546 C65.6745387,12.3837171 63.597423,12.2204763 63.5327434,12.216808 C63.0648397,12.2174194 62.6618203,12.385755 62.3351474,12.7177391 C61.2804197,13.7886881 61.315625,16.2152895 61.3162391,16.2397451 L61.3162391,22.5776032 Z M65.9547488,22.7813994 L61.1115568,22.7813994 L61.1115568,16.241783 C61.10951,16.1407001 61.0736906,13.707781 62.1887996,12.5752855 C62.5562043,12.2021347 63.0091662,12.0130118 63.5351996,12.0130118 L63.5388839,12.0130118 C63.6342658,12.0164763 65.8745133,12.1471097 65.9586377,16.3220787 C66.040306,20.4047281 65.9594565,22.6609558 65.9586377,22.6833734 L65.9547488,22.7813994 Z M63.7271916,10.0683884 C63.6629213,10.0683884 63.6273066,10.0702226 63.6242364,10.0704264 C55.2038123,11.118754 55.6735581,22.1502426 55.6790845,22.2617191 C55.6725347,22.3815512 55.0580785,33.1609439 59.2806738,37.4751057 C60.4952585,38.7160208 62.0092932,39.3123285 63.7802043,39.2503744 C66.1062136,39.1676332 67.9485588,38.3491876 69.2560692,36.8174553 C72.0078177,33.5944184 71.5622243,28.1644723 71.4840357,27.4037011 L66.124021,27.4037011 L66.124021,33.6569838 C66.1219742,33.7421706 66.0640491,35.697799 65.0516906,36.6460627 C64.6791688,36.9951656 64.2233414,37.1614633 63.6968986,37.1431217 C62.7385762,37.1076611 61.9869829,36.4899548 61.5233775,35.3566442 C61.1793066,34.5155772 61.1144223,33.6989658 61.1117615,33.6645243 L61.1115568,24.8888559 L71.561815,24.8888559 C71.8698618,18.8281606 70.7627354,14.513795 68.2711381,12.063757 C66.3579728,10.1825143 64.2161775,10.0683884 63.7271916,10.0683884 Z M63.5274217,39.4586541 C61.8076812,39.4586541 60.3308986,38.8399289 59.1339167,37.6171516 C54.8482792,33.2383864 55.4680571,22.3699349 55.4748116,22.2607001 C55.4688759,22.1590058 54.9893053,10.9400248 63.6049963,9.86764915 C63.6373361,9.864796 66.1856304,9.72662218 68.4150297,11.9186541 C70.9631193,14.4243285 72.0890765,18.8242885 71.7609708,24.9960527 L71.7560585,25.0926521 L61.3162391,25.0926521 L61.3162391,33.6569838 C61.3184906,33.6814394 61.5843728,36.8610677 63.7044718,36.9393255 C64.1727849,36.9601127 64.5803073,36.8082845 64.9112785,36.4979029 C65.8620277,35.6071097 65.9189294,33.6738989 65.9193387,33.6547421 L65.9193387,27.1999049 L71.6657936,27.1999049 L71.6772558,27.2889638 C71.6850337,27.3498989 72.4188197,33.4275093 69.4120371,36.9495153 C68.0658417,38.5264903 66.1731447,39.3691876 63.7873682,39.4541706 C63.7001735,39.4570238 63.6133882,39.4586541 63.5274217,39.4586541 Z" id="Fill-13" fill="#000000" mask="url(#mask-2)"></path>
                <path d="M87.6414907,12.1148284 C87.6414907,12.1148284 89.8801007,12.1973658 89.9625877,16.324239 C90.045484,20.4511121 89.9625877,22.6794198 89.9625877,22.6794198 L85.3203937,22.6794198 L85.3203937,16.2417015 C85.3203937,16.2417015 85.2374974,12.1148284 87.6414907,12.1148284 Z M90.1281757,27.3017215 L90.1281757,33.6571061 C90.1281757,33.6571061 90.045484,37.1234757 87.8076927,37.0411421 C85.5690827,36.9586046 85.3203937,33.6571061 85.3203937,33.6571061 L85.3203937,24.9906725 L95.7653302,24.9906725 C96.5942934,9.39109211 87.724387,9.96885435 87.724387,9.96885435 C79.1031696,11.0418414 79.6834439,22.2669363 79.6834439,22.2669363 C79.6834439,22.2669363 78.6059964,39.6823409 87.8901797,39.352191 C97.1745676,39.0220412 95.6824338,27.3017215 95.6824338,27.3017215 L90.1281757,27.3017215 Z" id="Fill-15" fill="#000000" mask="url(#mask-2)"></path>
                <path d="M85.4227758,22.5776032 L89.8633577,22.5776032 C89.8778902,22.1035732 89.9325403,19.926826 89.8602875,16.3263584 C89.7812801,12.3792336 87.7493992,12.2221067 87.6390755,12.216808 C87.1711718,12.2174194 86.7683571,12.385755 86.4416841,12.7177391 C85.3867517,13.7886881 85.4221617,16.2152895 85.4227758,16.2397451 L85.4227758,22.5776032 Z M90.0610808,22.7813994 L85.2180935,22.7813994 L85.2180935,16.241783 C85.2160467,16.1407001 85.1802273,13.707781 86.2951316,12.5752855 C86.6625363,12.2021347 87.1154982,12.0130118 87.6415316,12.0130118 L87.6452159,12.0130118 C87.7405979,12.0164763 89.9812547,12.1471097 90.0649698,16.3222825 C90.1468427,20.4047281 90.0657885,22.6609558 90.0649698,22.6833734 L90.0610808,22.7813994 Z M87.8302487,10.0683884 C87.76823,10.0683884 87.7338433,10.0702226 87.7309778,10.0704264 C79.310349,11.118754 79.7800948,22.1502426 79.7856213,22.2617191 C79.7790714,22.3815512 79.1648199,33.1611477 83.3874153,37.4751057 C84.6019999,38.7160208 86.1156253,39.3141626 87.8865363,39.2503744 C90.212341,39.1676332 92.0546862,38.3493914 93.3621965,36.8180667 C96.113331,33.5960488 95.6687611,28.1646761 95.5907771,27.4037011 L90.2305577,27.4037011 L90.2305577,33.6569838 C90.2285109,33.7421706 90.1703811,35.6980028 89.1582273,36.6462665 C88.7859102,36.9951656 88.3313109,37.1630937 87.8038447,37.1431217 C86.8453176,37.1076611 86.0935196,36.4899548 85.6299142,35.3566442 C85.2856387,34.5155772 85.2209591,33.6989658 85.2182982,33.6645243 L85.2180935,24.8888559 L95.6683517,24.8888559 C95.9761938,18.8316252 94.8705002,14.5186861 92.3819731,12.0676292 C90.4657377,10.1806801 88.3126848,10.0683884 87.8302487,10.0683884 Z M87.6337537,39.4586541 C85.9140132,39.4586541 84.4374353,38.8399289 83.2406581,37.6171516 C78.9548159,33.2385902 79.5745938,22.3699349 79.5813484,22.2607001 C79.5754126,22.1590058 79.095842,10.9400248 87.7117377,9.86764915 C87.7438728,9.864796 90.2923718,9.72662218 92.5217711,11.9186541 C95.0698607,14.4243285 96.1956132,18.8242885 95.8675076,24.9960527 L95.8625952,25.0926521 L85.4227758,25.0926521 L85.4227758,33.6569838 C85.4250273,33.6814394 85.6907049,36.8610677 87.8114179,36.9393255 C88.2805497,36.9580747 88.6864346,36.8080807 89.0176106,36.4983105 C89.967541,35.6085363 90.0254661,33.6738989 90.0258755,33.6547421 L90.0258755,27.1999049 L95.772535,27.1999049 L95.7839972,27.2889638 C95.7917751,27.3498989 96.5255611,33.4273055 93.5187785,36.9495153 C92.1723785,38.5264903 90.2796815,39.3691876 87.8937002,39.4541706 C87.8065056,39.4570238 87.7197203,39.4586541 87.6337537,39.4586541 Z" id="Fill-17" fill="#000000" mask="url(#mask-2)"></path>
                <polygon id="Fill-19" fill="#000000" mask="url(#mask-2)" points="73.1458716 39.1046194 78.2023425 39.1046194 78.2023425 0.146937063 73.1458716 0.146937063"></polygon>
                <path d="M73.2482127,39.0027213 L78.1000013,39.0027213 L78.1000013,0.248835165 L73.2482127,0.248835165 L73.2482127,39.0027213 Z M73.0435304,39.2065175 L78.3046836,39.2065175 L78.3046836,0.045038961 L73.0435304,0.045038961 L73.0435304,39.2065175 Z" id="Fill-21" fill="#000000" mask="url(#mask-2)"></path>
                <path d="M102.08379,11.7020595 L102.08379,10.0513103 L97.0682557,10.0513103 L97.0682557,39.1044971 L102.332479,39.1044971 C102.332479,39.1044971 102.311601,19.6256559 102.332479,17.5622194 C102.357246,15.0848727 105.979713,14.9210206 105.979713,14.9210206 L107.720535,14.9210206 L107.720535,9.8036979 C104.90206,9.39101059 102.08379,11.7020595 102.08379,11.7020595" id="Fill-22" fill="#000000" mask="url(#mask-2)"></path>
                <path d="M102.435045,39.2064971 L96.965935,39.2064971 L96.965935,9.94931029 L102.186152,9.94931029 L102.186152,11.4951045 C102.838883,11.0114961 105.297322,9.34586973 107.735293,9.70292068 L107.822897,9.71575984 L107.822897,15.0230206 L105.979733,15.0230206 C105.975639,15.0232244 105.080768,15.0678557 104.197974,15.4094182 C103.037835,15.8583812 102.444665,16.5830805 102.434841,17.5633403 C102.414168,19.6027289 102.434636,38.9097698 102.434841,39.1043952 L102.435045,39.2064971 Z" id="Fill-23" fill="#000000" mask="url(#mask-2)"></path>
                <path d="M35.4986813,33.1343892 C35.4986813,33.1343892 35.2774198,35.584631 33.343377,35.6103093 C31.270969,35.6378218 30.773591,33.4095141 30.773591,33.4095141 L30.773591,26.4486509 C30.773591,26.4486509 30.8288553,25.5407389 31.3538653,24.9629766 C31.8788753,24.3852144 34.7526144,22.8447189 35.4986813,22.1844192 L35.4986813,33.1343892 Z M33.4539054,10.0514122 C24.832688,10.2162833 25.9932365,18.9516 25.9932365,18.9516 L31.1880726,18.9516 L31.1880726,15.1687349 C31.1880726,15.1687349 31.54729,12.3624611 33.3710091,12.3624611 C35.1949328,12.3624611 35.415785,15.0309686 35.415785,15.0309686 L35.415785,18.8827169 C35.1670961,19.3229167 33.4539054,20.5611824 33.4539054,20.5611824 C32.7907348,21.0013822 32.0221529,21.5866849 29.9722599,22.9547688 C27.4579429,24.6328268 26.3524539,26.4213423 26.3524539,26.4213423 C24.7497917,28.9522873 25.2066425,34.9632563 26.0761328,36.6284751 C26.4288004,37.3034482 27.7340593,39.4345451 30.8014278,39.4345451 C33.868387,39.4345451 35.7750024,37.453646 35.7750024,37.453646 L35.7750024,39.104599 L40.6658854,39.104599 L40.6658854,18.9654581 C40.6658854,9.55618741 33.4539054,10.0514122 33.4539054,10.0514122 Z" id="Fill-24" fill="#000000" mask="url(#mask-2)"></path>
                <path d="M30.8759322,33.3975105 C30.8949676,33.4747493 31.0278064,33.9766993 31.3694211,34.4676444 C31.857179,35.1691109 32.52649,35.5178062 33.3419442,35.5084316 C34.100292,35.4984456 34.6754492,35.0998202 35.0516553,34.3235604 C35.3261342,33.7572108 35.3908138,33.1839321 35.3963402,33.1295185 L35.3963402,22.3996484 C34.9884084,22.7126793 34.2875763,23.1437083 33.5517435,23.5963397 C32.6402934,24.1567792 31.6979362,24.7363756 31.4298024,25.0314725 C30.9356994,25.574997 30.8763415,26.4462258 30.8757275,26.454989 L30.8759322,33.3975105 Z M33.3057155,35.7124316 C31.2071081,35.7124316 30.6788231,33.4543696 30.6737061,33.4315445 L30.6712499,33.4095345 L30.6712499,26.4486713 C30.6737061,26.40404 30.7351108,25.4920519 31.2779282,24.8945215 C31.5657114,24.5782298 32.478185,24.016975 33.4440807,23.4229091 C34.2513476,22.9264615 35.0862466,22.4130989 35.4307268,22.108016 L35.6010225,21.9574106 L35.6006131,33.1435804 C35.5983616,33.1690549 35.3478305,35.6857343 33.3448098,35.7122278 C33.3317101,35.7124316 33.3186104,35.7124316 33.3057155,35.7124316 Z M33.3710091,12.2605834 C35.2673904,12.2605834 35.5154653,14.9951209 35.5179215,15.0226334 L35.5181262,18.9094346 L35.5050265,18.9326673 C35.2481502,19.3871329 33.5846974,20.5925874 33.514082,20.6435365 C33.2641649,20.8094266 32.9995108,20.9956963 32.6644459,21.2316923 C32.0948151,21.6325594 31.3145663,22.1815864 30.0291616,23.0393646 C27.5649917,24.6842038 26.4504967,26.457027 26.4396486,26.4747572 C24.8683027,28.9563836 25.3020245,34.9247592 26.1670118,36.5814186 C26.5990961,37.4086274 27.9156124,39.3326673 30.8014278,39.3326673 C33.7901984,39.3326673 35.6822813,37.4027173 35.7011121,37.3833566 L35.8773435,37.2001439 L35.8773435,39.0027213 L40.5635442,39.0027213 L40.5635442,18.9654785 C40.5635442,15.7807552 39.7370372,13.3977662 38.1065382,11.8825415 C36.0777275,9.99661139 33.4872686,10.1508851 33.4608646,10.1531269 L33.4559522,10.1533307 C30.982367,10.2006114 29.0872138,10.9668851 27.8233007,12.4307532 C25.7883496,14.7878601 26.0265997,18.2538222 26.0851389,18.8497223 L31.0857315,18.8497223 L31.0857315,15.1687552 C31.1016967,15.0375105 31.4789262,12.2605834 33.3710091,12.2605834 Z M30.8014278,39.5364635 C27.8034466,39.5364635 26.4347362,37.5357962 25.9854586,36.6753686 C25.1034827,34.9865095 24.6628017,28.8989131 26.2658733,26.3669491 C26.2765168,26.3498302 27.41148,24.5413427 29.9153583,22.8702138 C31.1985114,22.0138621 31.9775322,21.4654466 32.5463442,21.0651908 C32.8826372,20.8283796 33.1483148,20.6414985 33.3972084,20.4764236 C33.8559014,20.1448472 35.0805155,19.2165554 35.3134439,18.8546134 L35.3134439,15.030989 C35.3116017,15.0136663 35.0790827,12.4643796 33.3710091,12.4643796 C31.6572044,12.4643796 31.2930746,15.1542857 31.2895951,15.1815944 L31.2904138,19.0535185 L25.9035857,19.0535185 L25.8917141,18.9650709 C25.8865971,18.9249231 25.387377,14.9396883 27.6681516,12.2978781 C28.9711589,10.7885634 30.9164593,9.99844555 33.4500165,9.94953447 C33.5539951,9.94362438 36.1847763,9.81767832 38.2461315,11.7335664 C39.9198185,13.2887353 40.7682265,15.7220619 40.7682265,18.9654785 L40.7682265,39.2065175 L35.6726613,39.2065175 L35.6726613,37.6884396 C35.127183,38.1685834 33.3495175,39.5364635 30.8014278,39.5364635 Z" id="Fill-25" fill="#000000" mask="url(#mask-2)"></path>
                <path d="M23.9521244,5.83545974 C23.4993672,7.31542777 22.4632656,7.31542777 22.3124147,7.31542777 C21.2460201,7.31542777 20.7832334,5.96894625 20.7832334,4.55561958 C20.7832334,3.63221898 21.004495,1.50662458 22.4532361,1.50662458 C22.8957592,1.50662458 23.6201298,1.70695624 23.8716843,2.87531988 L25.24981,2.44143776 C25.1593405,2.05198322 24.5557324,0.137929271 22.5236468,0.160143057 C20.7328816,0.160143057 19.2339933,1.67353367 19.2339933,4.62246474 C19.2339933,7.83836883 21.0849351,8.7955996 22.4933538,8.7955996 C23.6201298,8.7955996 24.3342662,8.20560959 24.7669645,7.60481838 C25.1290475,7.10409111 25.2195171,6.68121399 25.3202207,6.25833686 L23.9521244,5.83545974 Z" id="Fill-26" fill="#000000" mask="url(#mask-2)"></path>
                <path d="M22.5590159,0.261816983 C22.5475537,0.261816983 22.5362962,0.261816983 22.524834,0.262020779 C20.5875163,0.262020779 19.3362935,1.9735013 19.3362935,4.62244436 C19.3362935,8.49742537 21.9662561,8.69368112 22.4933129,8.69368112 C23.3980086,8.69368112 24.1350694,8.30728352 24.6838226,7.54528951 C25.008244,7.09673407 25.1050587,6.72093387 25.1985985,6.3274034 L24.0186052,5.96281199 C23.5635965,7.31031249 22.6017945,7.41730549 22.3123738,7.41730549 C21.108228,7.41730549 20.6808514,5.87558721 20.6808514,4.5555992 C20.6808514,4.0293974 20.7664086,1.40470609 22.4531952,1.40470609 C22.8906012,1.40470609 23.6536567,1.58200879 23.9463524,2.74486993 L25.1265504,2.37334945 C25.0006708,1.92194086 24.4111858,0.261816983 22.5590159,0.261816983 M22.4933129,8.89747732 C21.9992099,8.89747732 21.052145,8.77907173 20.2628902,7.98671209 C19.5123203,7.23327752 19.1316112,6.10118961 19.1316112,4.62244436 C19.1316112,1.849797 20.4630694,0.0582245754 22.5238106,0.0582245754 C22.5352728,0.0580207792 22.5469397,0.0580207792 22.5586066,0.0580207792 C24.3278801,0.0580207792 25.1451765,1.5383964 25.349654,2.41838841 L25.370941,2.5100967 L23.7952969,3.00613666 L23.7717584,2.8966981 C23.530438,1.77581898 22.8420915,1.6085023 22.4531952,1.6085023 C20.9610614,1.6085023 20.8855336,4.06343137 20.8855336,4.5555992 C20.8855336,5.78163716 21.2592835,7.21350929 22.3123738,7.21350929 C22.6466199,7.21350929 23.4655537,7.07635445 23.8542454,5.80588891 L23.884129,5.70786294 L25.4417611,6.18922957 L25.4081932,6.33025654 C25.3107644,6.74131349 25.2100607,7.16622857 24.8500246,7.66430649 C24.4449584,8.22678402 23.7070788,8.89747732 22.4933129,8.89747732" id="Fill-27" fill="#000000" mask="url(#mask-2)"></path>
                <path d="M27.4049302,5.67953526 C27.4049302,6.05798482 27.4350185,7.64922557 28.4713248,7.64922557 C29.5174559,7.64922557 29.5477489,6.02456224 29.5477489,5.51282997 C29.5477489,4.97847632 29.4370158,3.59877602 28.4913837,3.59877602 C27.5961034,3.59877602 27.4049302,4.72250829 27.4049302,5.67953526 M30.9058158,5.64631648 C30.9058158,7.82734346 29.6683068,8.73994286 28.4913837,8.73994286 C27.4149596,8.73994286 26.0468633,7.94982498 26.0468633,5.65732148 C26.0468633,3.66541738 27.0729355,2.60832647 28.3505623,2.60832647 C30.3726185,2.60832647 30.9058158,4.26641239 30.9058158,5.64631648" id="Fill-28" fill="#000000" mask="url(#mask-2)"></path>
                <path d="M28.4914041,3.70067413 C27.6779968,3.70067413 27.5072918,4.77671808 27.5072918,5.67953526 C27.5072918,6.2411976 27.6012409,7.54732747 28.4713453,7.54732747 C29.2763607,7.54732747 29.4454282,6.44091788 29.4454282,5.51282997 C29.4454282,5.08771109 29.376655,3.70067413 28.4914041,3.70067413 M28.4713453,7.75112368 C27.7285533,7.75112368 27.3026095,6.99605874 27.3026095,5.67953526 C27.3026095,4.25173906 27.7136115,3.49687792 28.4914041,3.49687792 C29.5666001,3.49687792 29.6501105,5.03981898 29.6501105,5.51282997 C29.6501105,7.36289191 29.0090456,7.75112368 28.4713453,7.75112368 M28.3505827,2.71022458 C27.0133934,2.71022458 26.1492249,3.86697183 26.1492249,5.65732148 C26.1492249,7.8573015 27.4108864,8.63804476 28.4914041,8.63804476 C30.0885399,8.63804476 30.8034951,7.13545534 30.8034951,5.64631648 C30.8034951,4.76347133 30.5644262,2.71022458 28.3505827,2.71022458 M28.4914041,8.84184096 C27.2238068,8.84184096 25.9445426,7.8573015 25.9445426,5.65732148 C25.9445426,3.74306374 26.8889466,2.50642837 28.3505827,2.50642837 C29.1496623,2.50642837 31.0081774,2.81232647 31.0081774,5.64631648 C31.0081774,7.85363317 29.7440597,8.84184096 28.4914041,8.84184096" id="Fill-29" fill="#000000" mask="url(#mask-2)"></path>
                <path d="M35.0049672,2.61949451 C34.0089833,2.61949451 33.4053753,3.25370829 33.1437913,3.53189011 L33.1437913,2.71955844 L31.7857244,2.71955844 L31.7857244,8.63963437 L33.1437913,8.63963437 L33.1437913,4.57797602 C33.6266368,4.08825375 33.9889244,3.82128072 34.3913298,3.82128072 C34.813794,3.82128072 34.8842047,4.17731269 34.8842047,4.50012587 L34.8842047,8.63963437 L36.2422716,8.63963437 L36.2422716,4.13268132 C36.2422716,3.15344056 35.8398662,2.61949451 35.0049672,2.61949451" id="Fill-30" fill="#000000" mask="url(#mask-2)"></path>
                <path d="M34.9865868,8.53775664 L36.1399714,8.53775664 L36.1399714,4.1327017 C36.1399714,3.18301139 35.7686777,2.72141299 35.0050082,2.72141299 C34.0462764,2.72141299 33.4662068,3.3381003 33.2185413,3.60160879 L33.0414911,3.78991648 L33.0414911,2.82147692 L31.8881065,2.82147692 L31.8881065,8.53775664 L33.0414911,8.53775664 L33.0414911,4.53621818 L33.0707607,4.50666773 C33.5499219,4.02061379 33.9379995,3.719403 34.3913707,3.719403 C34.7862028,3.719403 34.9865868,3.9820963 34.9865868,4.50014625 L34.9865868,8.53775664 Z M36.3446536,8.74155285 L34.7819045,8.74155285 L34.7819045,4.50014625 C34.7819045,4.09581459 34.6652356,3.9231992 34.3913707,3.9231992 C34.0180302,3.9231992 33.6743687,4.18894945 33.2461734,4.61977463 L33.2461734,8.74155285 L31.6834242,8.74155285 L31.6834242,2.61768072 L33.2461734,2.61768072 L33.2461734,3.28042597 C33.5710041,2.96413427 34.1447286,2.51761678 35.0050082,2.51761678 C35.6161894,2.51761678 36.3446536,2.79783656 36.3446536,4.1327017 L36.3446536,8.74155285 Z" id="Fill-31" fill="#000000" mask="url(#mask-2)"></path>
                <path d="M40.5123941,4.44430609 C40.3414844,4.22176064 40.0195192,3.86572867 39.566762,3.86572867 C38.5607486,3.86572867 38.5106015,5.26784655 38.5106015,5.71293746 C38.5106015,6.20265974 38.6413934,7.4935049 39.5769961,7.4935049 C40.0598416,7.4935049 40.3615433,7.11505534 40.5123941,6.92593247 L40.5123941,4.44430609 Z M41.8604316,0.204733666 L41.8604316,8.63965475 L40.5023647,8.63965475 L40.5023647,7.96080959 C40.331455,8.16114126 39.8385801,8.73992248 39.0337694,8.73992248 C37.8165239,8.73992248 37.031772,7.39344096 37.031772,5.69072368 C37.031772,3.9770014 37.8365827,2.61951489 39.0437988,2.61951489 C39.2951486,2.61951489 39.9089908,2.66394246 40.5023647,3.39842398 L40.5023647,0.204733666 L41.8604316,0.204733666 Z" id="Fill-32" fill="#000000" mask="url(#mask-2)"></path>
                <path d="M39.5667415,3.96766753 C38.7369596,3.96766753 38.6129221,5.06123796 38.6129221,5.71297822 C38.6129221,5.88477842 38.6401449,7.39164755 39.5769757,7.39164755 C39.9896151,7.39164755 40.2579536,7.07983936 40.4100325,6.89030889 L40.4100325,4.479196 C40.1384191,4.13498422 39.8623027,3.96766753 39.5667415,3.96766753 M39.5769757,7.59544376 C38.7144445,7.59544376 38.4082399,6.58135385 38.4082399,5.71297822 C38.4082399,4.45596324 38.8196512,3.76387133 39.5667415,3.76387133 C39.9329181,3.76387133 40.2784218,3.97194725 40.5936325,4.38239281 L40.6147148,4.4097015 L40.6147148,6.96143377 L40.5926091,6.98935385 C40.4358225,7.18601718 40.1093542,7.59544376 39.5769757,7.59544376 M39.0437783,2.72145375 C37.937266,2.72145375 37.1340927,3.97011309 37.1340927,5.69076444 C37.1340927,7.39837283 37.9331723,8.63806513 39.0337489,8.63806513 C39.7902546,8.63806513 40.250585,8.09861658 40.4237462,7.89543177 L40.6040713,7.6840951 L40.6046854,8.5377974 L41.75807,8.5377974 L41.75807,0.306672527 L40.6046854,0.306672527 L40.6046854,3.68765155 L40.4227228,3.46245674 C40.0254345,2.9706965 39.5616245,2.72145375 39.0437783,2.72145375 M39.0337489,8.84186134 C37.8144566,8.84186134 36.9294104,7.51657463 36.9294104,5.69076444 C36.9294104,3.85211508 37.8185502,2.51765754 39.0437783,2.51765754 C39.6396084,2.51765754 40.0909328,2.81703417 40.4000031,3.13047273 L40.4000031,0.102876324 L41.9627522,0.102876324 L41.9627522,8.74159361 L40.4000031,8.74159361 L40.4000031,8.22497023 C40.1429221,8.4839952 39.6842292,8.84186134 39.0337489,8.84186134" id="Fill-33" fill="#000000" mask="url(#mask-2)"></path>
                <path d="M44.0431633,5.04534186 C44.1035446,3.95482837 44.6668302,3.63221898 45.1195874,3.63221898 C45.5017292,3.63221898 46.1859821,3.87697822 46.2363339,5.04534186 L44.0431633,5.04534186 Z M47.3025239,4.25522398 C47.0309105,3.34262458 46.2764516,2.61955564 45.109558,2.61955564 C43.6307286,2.61955564 42.6146858,3.80992927 42.6146858,5.61291429 C42.6146858,7.61602717 43.8018429,8.73996324 45.1597052,8.73996324 C46.5984169,8.73996324 47.1617025,7.59360959 47.3428463,7.22636883 L46.2363339,6.71422897 C46.1155714,6.9593958 45.8539874,7.53776943 45.1699393,7.53776943 C44.7775633,7.53776943 44.0935152,7.30442278 44.0431633,5.94673247 L47.4433453,5.94673247 C47.4734336,5.4347964 47.4936971,4.91185534 47.3025239,4.25522398 Z" id="Fill-34" fill="#000000" mask="url(#mask-2)"></path>
                <path d="M44.1532005,4.94344376 L46.1275658,4.94344376 C46.034026,3.79403317 45.2748594,3.73411708 45.1195056,3.73411708 C44.9144139,3.73411708 44.2545183,3.82337982 44.1532005,4.94344376 Z M46.3430962,5.14723996 L43.9350092,5.14723996 L43.940945,5.03983936 C44.0025544,3.92690829 44.5901972,3.53032088 45.1195056,3.53032088 C45.3123163,3.53032088 46.2765744,3.60307612 46.3385932,5.04106214 L46.3430962,5.14723996 Z M45.1094761,2.72145375 C43.6785423,2.72145375 42.716945,3.8832959 42.716945,5.61291429 C42.716945,7.69143177 43.9831096,8.63806513 45.1596233,8.63806513 C46.4304955,8.63806513 46.9878454,7.69937982 47.2043992,7.27466853 L46.283943,6.84873447 C46.1423029,7.12936184 45.8399872,7.63966753 45.1698574,7.63966753 C44.8961972,7.63966753 43.9990748,7.5180012 43.940945,5.9504008 L43.9368514,5.84483437 L47.3466534,5.84483437 C47.3734668,5.34084635 47.3736714,4.866205 47.2043992,4.28395924 C46.9131363,3.30553367 46.1300219,2.72145375 45.1094761,2.72145375 Z M45.1596233,8.84186134 C43.8846574,8.84186134 42.5122627,7.83143976 42.5122627,5.61291429 C42.5122627,3.76142577 43.5561423,2.51765754 45.1094761,2.51765754 C46.2090293,2.51765754 47.0869116,3.17225095 47.4006895,4.22608112 L47.4008942,4.22669251 C47.5902253,4.87720999 47.5783537,5.39322198 47.5453999,5.95264256 L47.5398734,6.04863057 L44.1507443,6.04863057 C44.2317985,7.29810509 44.8863724,7.43587133 45.1698574,7.43587133 C45.7689624,7.43587133 46.0055751,6.95287433 46.1326828,6.69344176 L46.1885611,6.57992727 L47.4807203,7.17766154 L47.4346668,7.271204 C47.2424701,7.66086234 46.6599443,8.84186134 45.1596233,8.84186134 Z" id="Fill-35" fill="#000000" mask="url(#mask-2)"></path>
                <polygon id="Fill-36" fill="#000000" mask="url(#mask-2)" points="46.920423 0.260308891 45.320831 0.260308891 43.982823 1.97382737 44.9988658 1.97382737"></polygon>
                <path d="M44.1919878,1.87197003 L44.9595464,1.87197003 L46.6526781,0.362247752 L45.3709577,0.362247752 L44.1919878,1.87197003 Z M45.0379397,2.07576623 L43.7736173,2.07576623 L45.2708681,0.158451548 L47.188127,0.158451548 L45.0379397,2.07576623 Z" id="Fill-37" fill="#000000" mask="url(#mask-2)"></path>
                <polygon id="Fill-38" fill="#000000" mask="url(#mask-2)" points="55.1335858 0.326991009 55.1335858 5.90224376 55.113527 5.90224376 52.0553691 0.326991009 50.4960995 0.326991009 50.4960995 8.63963437 51.9651042 8.63963437 51.9651042 2.84203996 51.9849584 2.84203996 55.1440246 8.63963437 56.6025905 8.63963437 56.6025905 0.326991009"></polygon>
                <path d="M55.2049381,8.53775664 L56.5001675,8.53775664 L56.5001675,0.428909491 L55.2358451,0.428909491 L55.2358451,6.00416224 L55.0727133,6.00416224 L55.0237942,5.95117522 L51.9947013,0.428909491 L50.5985635,0.428909491 L50.5985635,8.53775664 L51.8626812,8.53775664 L51.8626812,2.74016224 L52.025813,2.74016224 L52.0749367,2.79335305 L55.2049381,8.53775664 Z M56.7048498,8.74155285 L55.0829474,8.74155285 L52.0673635,3.20685554 L52.0673635,8.74155285 L50.3938812,8.74155285 L50.3938812,0.225113287 L52.1162825,0.225113287 L55.0311628,5.53950689 L55.0311628,0.225113287 L56.7048498,0.225113287 L56.7048498,8.74155285 Z" id="Fill-39" fill="#000000" mask="url(#mask-2)"></path>
                <path d="M60.6870048,5.59534705 C60.181849,5.70070969 58.8487533,5.98520919 58.8487533,6.91248192 C58.8487533,7.38651189 59.1819761,7.61843197 59.4961633,7.61843197 C59.9822837,7.61843197 60.4964456,7.16539301 60.6870048,6.99664975 L60.6870048,5.59534705 Z M61.9060924,7.33372867 C61.9060924,7.67101139 62.0014744,8.21881558 62.0874409,8.48232408 L60.8491132,8.48232408 C60.7823868,8.21881558 60.7535266,8.03988252 60.7344911,7.90293147 C60.4964456,8.13464775 60.0393901,8.57708931 59.2487025,8.57708931 C58.4011132,8.57708931 57.629461,8.01868771 57.629461,7.02823816 C57.629461,5.56375864 59.0870035,4.93158282 60.6870048,4.79463177 L60.6870048,4.62588851 C60.6870048,4.07788052 60.3343373,3.7408016 59.8297955,3.7408016 C59.2673286,3.7408016 58.8487533,4.05688951 58.5343613,4.52052587 L57.7723292,3.81457582 C58.3151466,3.09802837 59.0485232,2.78194046 59.8486262,2.78194046 C60.7250757,2.78194046 61.9060924,3.09802837 61.9060924,4.71026014 L61.9060924,7.33372867 Z" id="Fill-40" fill="#000000" mask="url(#mask-2)"></path>
                <path d="M60.5846637,5.72121159 C60.0395948,5.83941339 58.9510944,6.12676603 58.9510944,6.9124004 C58.9510944,7.32753327 59.233556,7.51665614 59.4961633,7.51665614 C59.9186276,7.51665614 60.3908296,7.12129151 60.5846637,6.95091788 L60.5846637,5.72121159 Z M59.4961633,7.72045235 C59.1234369,7.72045235 58.7464122,7.44288192 58.7464122,6.9124004 C58.7464122,5.89606873 60.1409125,5.60525155 60.6659225,5.49560919 L60.789346,5.46993087 L60.789346,7.04242238 L60.7549593,7.07278801 C60.5549847,7.24988691 60.0240389,7.72045235 59.4961633,7.72045235 Z M59.8297955,3.63882198 C60.4037245,3.63882198 60.789346,4.03561319 60.789346,4.62580699 L60.789346,4.88809271 L60.6958062,4.89604076 C59.8044148,4.97246434 57.7318021,5.33297982 57.7318021,7.02815664 C57.7318021,8.02247832 58.5179868,8.47510969 59.2487025,8.47510969 C60.0005005,8.47510969 60.4313567,8.05549331 60.663057,7.83009471 L60.8081767,7.68866014 L60.8360135,7.88899181 C60.8530021,8.01126953 60.8773593,8.16391289 60.9293486,8.38034446 L61.9517366,8.38034446 C61.8757995,8.08647033 61.8037513,7.631801 61.8037513,7.33364715 L61.8037513,4.71038242 C61.8037513,3.20066014 60.7406316,2.88375704 59.8486262,2.88375704 C59.0663306,2.88375704 58.3980429,3.20147532 57.9106944,3.80348931 L58.5183961,4.36657822 C58.8774088,3.88358122 59.3180898,3.63882198 59.8297955,3.63882198 Z M59.2487025,8.67890589 C58.3931306,8.67890589 57.5271199,8.11194486 57.5271199,7.02815664 C57.5271199,5.73629251 58.6397727,4.89135345 60.5846637,4.70161918 L60.5846637,4.62580699 C60.5846637,4.15014665 60.2882837,3.84261818 59.8297955,3.84261818 C59.3569794,3.84261818 58.9498664,4.09002677 58.6190998,4.57750729 L58.5523734,4.67634845 L57.6349874,3.82672208 L57.6904563,3.75315165 C58.2224256,3.05107373 58.9686971,2.67996084 59.8486262,2.67996084 C60.6552791,2.67996084 62.0084336,2.94387692 62.0084336,4.71038242 L62.0084336,7.33364715 C62.0084336,7.663797 62.101564,8.19570509 62.184665,8.45085794 L62.2282623,8.58414066 L60.7692871,8.58414066 L60.750047,8.50710569 C60.7093152,8.34753327 60.6827065,8.21853027 60.663671,8.11051828 C60.3951279,8.35222058 59.9411426,8.67890589 59.2487025,8.67890589 Z" id="Fill-41" fill="#000000" mask="url(#mask-2)"></path>
                <path d="M65.3147278,5.10087632 C64.7612669,4.96738981 64.2385084,4.84490829 64.2385084,4.32176344 C64.2385084,3.97694026 64.5504441,3.63211708 65.0431144,3.63211708 C65.3953726,3.63211708 65.6667813,3.77660859 66.1195385,4.08821299 L66.2503304,4.17727193 L67.0350823,3.4539992 C66.6425017,3.13118601 66.00901,2.61945375 65.0330849,2.61945375 C63.8358983,2.61945375 62.970911,3.4539992 62.970911,4.45545375 C62.970911,5.91320799 64.3187438,6.22481239 64.9020883,6.33628891 C65.4453151,6.43614905 65.8984816,6.59205315 65.8984816,7.04835285 C65.8984816,7.48223497 65.4453151,7.63813906 65.0533485,7.63813906 C64.3893592,7.63813906 63.9666903,7.28210709 63.6649886,7.02593526 L62.8401191,7.66035285 C63.1821431,8.06101618 63.7855465,8.73986134 65.0330849,8.73986134 C66.6928535,8.73986134 67.2563438,7.66035285 67.2563438,6.83681239 C67.2563438,5.54596723 66.0288642,5.26778541 65.3147278,5.10087632" id="Fill-42" fill="#000000" mask="url(#mask-2)"></path>
                <path d="M62.9878792,7.6755968 C63.3141427,8.05119321 63.895031,8.63812627 65.0330645,8.63812627 C65.8208866,8.63812627 67.1539822,8.25865774 67.1539822,6.83677163 C67.1539822,5.63539301 65.997118,5.36515924 65.305906,5.20354885 L65.2907595,5.19988052 L65.3147073,5.10083556 L65.2795019,5.19723117 C64.7174444,5.06170669 64.1361468,4.9216987 64.1361468,4.32172268 C64.1361468,3.93267572 64.47551,3.53038202 65.0430939,3.53038202 C65.4221655,3.53038202 65.7109722,3.68322917 66.1776478,4.00441199 L66.2408946,4.04741299 L66.879708,3.45864575 C66.5030926,3.15356284 65.909514,2.72131109 65.0330645,2.72131109 C63.9341254,2.72131109 63.0732317,3.4831013 63.0732317,4.45541299 C63.0732317,5.88341299 64.4642524,6.14895944 64.921308,6.23618422 C65.481728,6.33930509 66.0008023,6.50906733 66.0008023,7.04831209 C66.0008023,7.55902537 65.4905294,7.7399964 65.053328,7.7399964 C64.3965026,7.7399964 63.9599153,7.4076048 63.6621026,7.15713926 L62.9878792,7.6755968 Z M65.0330645,8.84192248 C63.7142966,8.84192248 63.0711849,8.08848791 62.7621146,7.72634206 L62.6927274,7.64502737 L63.6682431,6.89464975 L63.7314899,6.94845195 C64.0237762,7.19647193 64.4237254,7.5362002 65.053328,7.5362002 C65.3959662,7.5362002 65.79612,7.40841998 65.79612,7.04831209 C65.79612,6.72875964 65.5402672,6.55736703 64.8836464,6.43631209 C63.5464571,6.18115924 62.8685494,5.51474565 62.8685494,4.45541299 C62.8685494,3.36877163 63.8192986,2.51751489 65.0330645,2.51751489 C66.0568852,2.51751489 66.710231,3.05472168 67.1003555,3.3754969 L67.1904157,3.44967872 L66.25993,4.30725315 L66.0617976,4.17254386 C65.6211167,3.8692951 65.3697668,3.73417822 65.0430939,3.73417822 C64.6036411,3.73417822 64.340829,4.03294346 64.340829,4.32172268 C64.340829,4.73176064 64.7137601,4.85118521 65.327807,4.99914126 L65.3147073,5.10083556 L65.3380411,5.00158681 L65.3147073,5.10083556 L65.3527782,5.00505135 C66.053815,5.1689035 67.3586645,5.47398641 67.3586645,6.83677163 C67.3586645,7.83476164 66.6396157,8.84192248 65.0330645,8.84192248 Z" id="Fill-43" fill="#000000" mask="url(#mask-2)"></path>
                <path d="M71.03965,3.79888352 L71.03965,2.71957882 L70.0942226,2.71957882 L70.0942226,0.805524875 L68.735951,0.805524875 L68.735951,2.71957882 L67.9213156,2.71957882 L67.9213156,3.79888352 L68.735951,3.79888352 L68.735951,6.94814625 C68.735951,7.53793247 68.9373584,8.11671369 69.4099698,8.46174066 C69.7923163,8.75092747 70.2753664,8.76213626 71.03965,8.72871369 L71.03965,7.50450989 C70.5265116,7.4935049 70.0942226,7.46008232 70.0942226,6.94814625 L70.0942226,3.79888352 L71.03965,3.79888352 Z" id="Fill-44" fill="#000000" mask="url(#mask-2)"></path>
                <path d="M68.0235748,3.69698541 L68.8382103,3.69698541 L68.8382103,6.94814625 C68.8382103,7.31029211 68.9204926,7.97813227 69.4704738,8.37961079 C69.8208899,8.64434206 70.2838812,8.65718122 70.937227,8.63089151 L70.937227,7.60396244 C70.5100551,7.59153087 69.9917996,7.53691349 69.9917996,6.94814625 L69.9917996,3.69698541 L70.937227,3.69698541 L70.937227,2.82147692 L69.9917996,2.82147692 L69.9917996,0.907422977 L68.8382103,0.907422977 L68.8382103,2.82147692 L68.0235748,2.82147692 L68.0235748,3.69698541 Z M70.5425996,8.84426613 C70.0482919,8.84426613 69.6681969,8.78496144 69.3480738,8.54285155 C68.8879481,8.2069954 68.633528,7.64023816 68.633528,6.94814625 L68.633528,3.90078162 L67.8188926,3.90078162 L67.8188926,2.61768072 L68.633528,2.61768072 L68.633528,0.703626773 L70.1964819,0.703626773 L70.1964819,2.61768072 L71.1419093,2.61768072 L71.1419093,3.90078162 L70.1964819,3.90078162 L70.1964819,6.94814625 C70.1964819,7.32374266 70.4457849,7.38977263 71.0418197,7.40261179 L71.1419093,7.40485355 L71.1419093,8.82612827 L71.0440712,8.83040799 C70.8645648,8.83835604 70.6977488,8.84426613 70.5425996,8.84426613 Z" id="Fill-45" fill="#000000" mask="url(#mask-2)"></path>
            </g>
        </g>
    </g>
</svg>