<svg id="Layer_1" data-name="Layer 1" xmlns="http://www.w3.org/2000/svg" viewBox="0 0 200 200"><defs><style>.cls-1{fill:#1a2679;}.cls-2{fill:#ffbe3b;}.cls-3{fill:#fff;}.cls-4{fill:#00ccb3;}</style></defs><path class="cls-1" d="M66.39,169.11a9.33,9.33,0,0,1-7.29-3.49L13.83,109.26A9.36,9.36,0,0,1,15.26,96.1l117.05-94a9.36,9.36,0,0,1,13.14,1.43l45.27,56.35A9.36,9.36,0,0,1,189.29,73l-1.41-1.76L189.29,73l-117,94A9.12,9.12,0,0,1,66.39,169.11ZM138.17,4.53a4.89,4.89,0,0,0-3,1.06l-117.07,94a4.83,4.83,0,0,0-1.79,3.26,4.91,4.91,0,0,0,1,3.56l45.27,56.37a4.87,4.87,0,0,0,6.83.74l117.05-94a4.86,4.86,0,0,0,.74-6.82L142,6.33a4.91,4.91,0,0,0-3.26-1.79Z"/><circle class="cls-2" cx="113.35" cy="72.11" r="14.42"/><path class="cls-1" d="M106.62,94.87a16.68,16.68,0,1,1,16.66-16.68A16.7,16.7,0,0,1,106.62,94.87Zm0-28.86A12.18,12.18,0,1,0,118.8,78.19,12.19,12.19,0,0,0,106.62,66Z"/><path class="cls-1" d="M140,19.89a16.77,16.77,0,0,1-15.11-9.59,2.25,2.25,0,1,1,4.07-1.9,12.25,12.25,0,0,0,11,7,12,12,0,0,0,8.77-3.75A2.25,2.25,0,0,1,152,14.78,16.67,16.67,0,0,1,140,19.89Z"/><path class="cls-1" d="M21.74,118a2.25,2.25,0,0,1-1.09-4.22A12.21,12.21,0,0,0,27,102.31a12.06,12.06,0,0,0-4.29-8.52,2.25,2.25,0,0,1,2.89-3.44A16.5,16.5,0,0,1,31.44,102a16.78,16.78,0,0,1-8.62,15.69A2.28,2.28,0,0,1,21.74,118Z"/><path class="cls-1" d="M178.92,80.45a2.17,2.17,0,0,1-1.55-.63,16.5,16.5,0,0,1-5.12-12,16.78,16.78,0,0,1,9.59-15.11,2.25,2.25,0,0,1,1.9,4.08,12.24,12.24,0,0,0-7,11,12,12,0,0,0,3.74,8.78,2.26,2.26,0,0,1,.07,3.18A2.19,2.19,0,0,1,178.92,80.45Z"/><rect class="cls-3" x="9.49" y="111.26" width="172.44" height="79.53"/><circle class="cls-1" cx="81.29" cy="197.74" r="2.14"/><circle class="cls-1" cx="93.1" cy="197.74" r="2.14"/><circle class="cls-1" cx="104.3" cy="197.74" r="2.14"/><path class="cls-4" d="M180.5,190.25H27.58a5.71,5.71,0,0,1-5.72-5.72V109.47a5.7,5.7,0,0,1,5.72-5.71H180.5a5.71,5.71,0,0,1,5.72,5.71v75.06A5.72,5.72,0,0,1,180.5,190.25Z"/><path class="cls-1" d="M166.73,200H113.31a2.25,2.25,0,0,1,0-4.49h53.42a4.85,4.85,0,0,0,4.85-4.85V118.38a4.85,4.85,0,0,0-4.85-4.85H16.58a4.85,4.85,0,0,0-4.85,4.85v72.28a4.85,4.85,0,0,0,4.85,4.85h55a2.25,2.25,0,1,1,0,4.49h-55a9.37,9.37,0,0,1-9.36-9.35V118.36A9.37,9.37,0,0,1,16.58,109H166.73a9.37,9.37,0,0,1,9.35,9.36v72.29A9.38,9.38,0,0,1,166.73,200Z"/><path class="cls-3" d="M45.62,165.87H25.77a1.46,1.46,0,0,1-1.45-1.44V156a1.46,1.46,0,0,1,1.45-1.45H45.6A1.45,1.45,0,0,1,47.05,156v8.47A1.42,1.42,0,0,1,45.62,165.87Z"/><path class="cls-1" d="M45.26,168.12H26.13a4.06,4.06,0,0,1-4.05-4.06V156.3a4.06,4.06,0,0,1,4.05-4.05H45.28a4.06,4.06,0,0,1,4,4.05v7.76A4.08,4.08,0,0,1,45.26,168.12Zm-18.69-4.49H44.83v-6.88H26.57Z"/><rect class="cls-3" x="11.78" y="128.31" width="159.81" height="14.75"/><path class="cls-1" d="M173.82,130.55H9.49a2.24,2.24,0,1,1,0-4.48H173.84a2.24,2.24,0,0,1,2.24,2.24A2.27,2.27,0,0,1,173.82,130.55Z"/><path class="cls-1" d="M173.82,145.3H9.49a2.25,2.25,0,1,1,0-4.49H173.84a2.25,2.25,0,1,1,0,4.49Z"/></svg>