<svg id="Layer_1" data-name="Layer 1" xmlns="http://www.w3.org/2000/svg" viewBox="0 0 200 200"><defs><style>.cls-1{fill:#00ccb3;}.cls-2{fill:#1a2679;}.cls-3{fill:#fff;}.cls-4{fill:#ffbe3b;}</style></defs><path class="cls-1" d="M52.35,135.8S35.28,85,82.19,60c34.06-18.15,77.79,1.29,82.15-2.5,0,0,.11,112.25-88.09,88.18C56.15,140.16,52.35,135.8,52.35,135.8Z"/><path class="cls-2" d="M10,139.2a2.75,2.75,0,0,1-2.54-1.71A100,100,0,0,1,88.12.39a2.76,2.76,0,0,1,3,2.4,2.76,2.76,0,0,1-2.39,3A94.56,94.56,0,0,0,12.51,135.42,2.76,2.76,0,0,1,11,139,3,3,0,0,1,10,139.2Z"/><path class="cls-2" d="M100,199.63A99.71,99.71,0,0,1,22.67,163a2.74,2.74,0,1,1,4.23-3.49,94.5,94.5,0,0,0,146.18,0,2.74,2.74,0,1,1,4.23,3.49A99.74,99.74,0,0,1,100,199.63Z"/><path class="cls-2" d="M190,139.18a2.78,2.78,0,0,1-1-.2,2.74,2.74,0,0,1-1.5-3.58A94.58,94.58,0,0,0,112.08,5.9a2.75,2.75,0,0,1-2.37-3.07A2.77,2.77,0,0,1,112.78.46a100,100,0,0,1,79.8,137A2.78,2.78,0,0,1,190,139.18Z"/><path class="cls-2" d="M85.7,157.52a91,91,0,0,1-24-3.49c-19.9-5.44-24.53-9.87-25.25-10.71a2.57,2.57,0,0,1-.53-.92c-.17-.53-17.24-53.32,31.16-79.1,24.62-13.12,53.41-7.42,70.59-4,4.65.92,9.87,2,11.32,1.66a2.81,2.81,0,0,1,2.68-.22,2.77,2.77,0,0,1,1.6,2.48c0,2.37-.31,58.32-32.63,83C110.85,153.74,99.13,157.52,85.7,157.52ZM40.94,140c1.36,1,6.78,4.54,22.25,8.77,22.1,6,40.31,3.73,54.13-6.84,25.92-19.79,29.82-63.26,30.39-75.46a82.63,82.63,0,0,1-11.08-1.8c-16.48-3.27-44.06-8.73-67,3.47C27.78,90.46,39.06,133.76,40.94,140ZM148.77,61.15Z"/><path class="cls-2" d="M24.66,164a2.63,2.63,0,0,1-1.62-.54,2.75,2.75,0,0,1-.57-3.84c1.71-2.29,42.08-56.15,76-68.51a2.74,2.74,0,1,1,1.86,5.16C68,108.06,27.27,162.35,26.86,162.89A2.66,2.66,0,0,1,24.66,164Z"/><circle class="cls-3" cx="28.79" cy="28.44" r="12.33"/><circle class="cls-4" cx="34.25" cy="22.95" r="12.33"/><path class="cls-2" d="M28.79,43.51A15.08,15.08,0,1,1,43.86,28.44,15.1,15.1,0,0,1,28.79,43.51Zm0-24.66a9.59,9.59,0,1,0,9.59,9.59A9.6,9.6,0,0,0,28.79,18.85Z"/><polygon class="cls-1" points="151 113.06 132.44 116.16 144.82 66.7 157.17 60.51 151 113.06"/><circle class="cls-2" cx="141.28" cy="106.9" r="3.01" transform="matrix(0.16, -0.99, 0.99, 0.16, 13.13, 229.24)"/><circle class="cls-2" cx="145.74" cy="92.44" r="3.01"/><circle class="cls-2" cx="147.98" cy="76.75" r="3.01"/></svg>