<svg id="Layer_1" data-name="Layer 1" xmlns="http://www.w3.org/2000/svg" viewBox="0 0 200 200"><defs><style>.cls-1{fill:#1a2679;}.cls-2{fill:#00ccb3;}.cls-3{fill:#ffbe3b;}</style></defs><g id="Grupo_105" data-name="Grupo 105"><g id="Grupo_89" data-name="Grupo 89"><g id="Grupo_86" data-name="Grupo 86"><circle id="Elipse_63" data-name="Elipse 63" class="cls-1" cx="84.81" cy="23.01" r="1.94"/></g><g id="Grupo_87" data-name="Grupo 87"><circle id="Elipse_64" data-name="Elipse 64" class="cls-1" cx="95.54" cy="21.23" r="1.94"/></g><g id="Grupo_88" data-name="Grupo 88"><circle id="Elipse_65" data-name="Elipse 65" class="cls-1" cx="105.71" cy="23.01" r="1.94"/></g></g><g id="Grupo_90" data-name="Grupo 90"><path id="Trazado_571" data-name="Trazado 571" class="cls-1" d="M72.14,101.64a5.79,5.79,0,0,0-3.25,1A17,17,0,0,0,66.1,105a2.7,2.7,0,0,1-1.76.63,2.06,2.06,0,0,1-1.49-.56,2,2,0,0,1-.58-1.47,2.63,2.63,0,0,1,.45-1.44,24.6,24.6,0,0,1,1.87-1.78,15.61,15.61,0,0,1,2.14-1.56,11.28,11.28,0,0,1,2.37-1.08,8.14,8.14,0,0,1,2.54-.41,6.75,6.75,0,0,1,2.8.61,7,7,0,0,1,2.28,1.71,8.33,8.33,0,0,1,1.53,2.64,9.76,9.76,0,0,1,.57,3.38,6.44,6.44,0,0,1-.59,2.76,9.81,9.81,0,0,1-1.48,2.3,12.61,12.61,0,0,1-2.06,1.87c-.76.55-1.52,1.06-2.27,1.51s-1.19.73-1.76,1.12a9.92,9.92,0,0,0-1.6,1.36,7.68,7.68,0,0,0-1.29,1.8,8.05,8.05,0,0,0-.76,2.44h8a1.45,1.45,0,0,0,.67-.23,2.32,2.32,0,0,0,.48-.4c.13-.16.27-.31.4-.48a1.47,1.47,0,0,1,.48-.38,1.93,1.93,0,0,1,.59-.18,4.23,4.23,0,0,1,.63,0,2.09,2.09,0,0,1,1.55.61,2,2,0,0,1,.61,1.42,1.68,1.68,0,0,1-.14.77,2.07,2.07,0,0,1-.27.45,8.47,8.47,0,0,1-2.09,2,4.89,4.89,0,0,1-2.78.79H64.53a2.3,2.3,0,0,1-2.25-2.25c.09-1,.22-2,.4-2.91a16.3,16.3,0,0,1,.77-2.73,12,12,0,0,1,1.28-2.46,9.76,9.76,0,0,1,2-2.09,6.11,6.11,0,0,1,1-.72c.47-.27.94-.56,1.43-.86L71,110a8.86,8.86,0,0,0,1.67-1.31,6.29,6.29,0,0,0,1.2-1.65,4.84,4.84,0,0,0,.45-2.12,3.84,3.84,0,0,0-.63-2A2.57,2.57,0,0,0,72.14,101.64Z"/><path id="Trazado_572" data-name="Trazado 572" class="cls-1" d="M97.39,123.92a2.17,2.17,0,0,1-2.24,2.3,2.19,2.19,0,0,1-1.38-.5,2.34,2.34,0,0,1-.76-1.63v-4.77l-9.24-.14q-2.25-.18-2.25-2.07a2.9,2.9,0,0,1,.09-.59q1.53-2.79,3.11-5.52c1-1.82,2.11-3.63,3.16-5.44l3.65-6.31a2.43,2.43,0,0,1,2.12-1.17,2.29,2.29,0,0,1,1.44.54,1.76,1.76,0,0,1,.68,1.45,2.3,2.3,0,0,1-.31,1l-2.08,3.6c-.69,1.19-1.38,2.4-2.07,3.64l-4,6.91,5.72.14v-4.78c.36-1.27,1.07-1.89,2.14-1.89a2.3,2.3,0,0,1,1.41.42,2.18,2.18,0,0,1,.82,1.33v5h2.42c1.3.48,2,1.15,2,2s-.72,1.65-2.14,2c-.4,0-.76,0-1.08,0s-.77,0-1.16,0Z"/><path id="Trazado_573" data-name="Trazado 573" class="cls-1" d="M114.43,94.47a2.48,2.48,0,0,1,2.07-1.26,2.24,2.24,0,0,1,1.49.54,2,2,0,0,1,.49,2.17l-8.61,20-2.39,5.5q-1.22,2.79-2.39,5.5a2.53,2.53,0,0,1-1,.88,2.82,2.82,0,0,1-1.06.24,2.14,2.14,0,0,1-1.47-.52,1.89,1.89,0,0,1-.61-1.5,3.81,3.81,0,0,1,0-.59l8.57-19.8q1.17-2.75,2.43-5.61T114.43,94.47Z"/><path id="Trazado_574" data-name="Trazado 574" class="cls-1" d="M127.94,124.37a2.6,2.6,0,0,1-.94,1.23,2.23,2.23,0,0,1-1.22.39,2.18,2.18,0,0,1-1.44-.54,2.24,2.24,0,0,1-.73-1.58,38.93,38.93,0,0,1,1-5.57,46.53,46.53,0,0,1,1.82-5.77A50.9,50.9,0,0,1,129,107a37.71,37.71,0,0,1,3-4.83H119.83a3,3,0,0,1-1.69-.73,1.72,1.72,0,0,1-.57-1.23,2,2,0,0,1,.61-1.34,2.57,2.57,0,0,1,1.83-.66H136.6c1.27.32,1.9,1,1.89,2a2,2,0,0,1,0,.48,2.07,2.07,0,0,1-.14.42l-1.48,1.83c-.36.44-.71.88-1,1.33a47.07,47.07,0,0,0-2.77,4.57,52.31,52.31,0,0,0-2.33,5A45.58,45.58,0,0,0,129,119a35.42,35.42,0,0,0-1,5.31Z"/></g><g id="Grupo_93" data-name="Grupo 93"><g id="Grupo_91" data-name="Grupo 91"><rect id="Rectángulo_275" data-name="Rectángulo 275" class="cls-2" x="158.39" y="59.04" width="36.08" height="89.26" rx="7.39"/></g><g id="Grupo_92" data-name="Grupo 92"><rect id="Rectángulo_276" data-name="Rectángulo 276" class="cls-2" x="182.59" y="86.01" width="17.41" height="37.39" rx="4.1"/></g></g><g id="Grupo_94" data-name="Grupo 94"><path id="Trazado_575" data-name="Trazado 575" class="cls-1" d="M171.05,73.22A10.78,10.78,0,0,1,181.83,84V96.59a4.08,4.08,0,0,0,2.73,3.85,4.15,4.15,0,0,1,2.8,3.9v20.91a4.13,4.13,0,0,1-2.8,3.89,4.1,4.1,0,0,0-2.73,3.85v10.54a10.79,10.79,0,0,1-10.78,10.78h-6.36a10.8,10.8,0,0,1-10.78-10.78V84a10.78,10.78,0,0,1,10.78-10.78h6.36m0-4.08h-6.36A14.86,14.86,0,0,0,149.83,84v59.53a14.86,14.86,0,0,0,14.86,14.86h6.36a14.86,14.86,0,0,0,14.86-14.86h0V133a8.2,8.2,0,0,0,5.53-7.74V104.34a8.21,8.21,0,0,0-5.53-7.75V84a14.86,14.86,0,0,0-14.86-14.86Z"/></g><g id="Grupo_97" data-name="Grupo 97"><g id="Grupo_95" data-name="Grupo 95"><rect id="Rectángulo_277" data-name="Rectángulo 277" class="cls-2" x="13.62" y="59.7" width="36.08" height="89.26" rx="7.39"/></g><g id="Grupo_96" data-name="Grupo 96"><rect id="Rectángulo_278" data-name="Rectángulo 278" class="cls-2" x="8.09" y="86.66" width="17.41" height="37.39" rx="4.1"/></g></g><g id="Grupo_98" data-name="Grupo 98"><path id="Trazado_576" data-name="Trazado 576" class="cls-1" d="M26.75,73.22A10.77,10.77,0,0,1,37.52,84v59.53a10.78,10.78,0,0,1-10.77,10.78H20.38A10.8,10.8,0,0,1,9.6,143.53V133a4.07,4.07,0,0,0-2.73-3.85,4.14,4.14,0,0,1-2.79-3.89V104.34a4.16,4.16,0,0,1,2.79-3.9A4.06,4.06,0,0,0,9.6,96.59V84A10.78,10.78,0,0,1,20.38,73.22h6.37m0-4.08H20.38A14.85,14.85,0,0,0,5.53,84V96.59A8.22,8.22,0,0,0,0,104.34v20.91A8.2,8.2,0,0,0,5.53,133v10.54a14.86,14.86,0,0,0,14.86,14.86h6.36a14.86,14.86,0,0,0,14.86-14.86h0V84A14.86,14.86,0,0,0,26.75,69.14Z"/></g><g id="Grupo_99" data-name="Grupo 99"><path id="Trazado_577" data-name="Trazado 577" class="cls-1" d="M151.49,86a2,2,0,0,1-2-2h0c0-26.8-15.84-50.48-38.51-57.58a2,2,0,0,1-1.34-2.53,2,2,0,0,1,2.46-1.38h0c24.33,7.61,41.33,32.89,41.33,61.48A2,2,0,0,1,151.49,86Z"/></g><g id="Grupo_100" data-name="Grupo 100"><path id="Trazado_578" data-name="Trazado 578" class="cls-1" d="M39.73,86a2,2,0,0,1-2-2h0c0-27.68,16.66-52.78,40.51-61a2,2,0,0,1,2.51,1.28,2.06,2.06,0,0,1-1.24,2.59C57.26,34.49,41.71,58,41.71,84A2,2,0,0,1,39.73,86Z"/></g><g id="Grupo_101" data-name="Grupo 101"><path id="Trazado_579" data-name="Trazado 579" class="cls-1" d="M25.62,72l-3.86-.82C28,39.7,53.57,5.78,95.07,5.78c42.13,0,67.21,32.77,73.37,65.25l-3.87.79c-5.85-30.84-29.61-62-69.5-62C55.78,9.86,31.52,42.09,25.62,72Z"/></g><g id="Grupo_102" data-name="Grupo 102"><circle id="Elipse_66" data-name="Elipse 66" class="cls-3" cx="101.45" cy="180.87" r="10.32"/></g><g id="Grupo_103" data-name="Grupo 103"><path id="Trazado_580" data-name="Trazado 580" class="cls-1" d="M96.42,177.66a6.24,6.24,0,1,1-6.24,6.24h0a6.26,6.26,0,0,1,6.24-6.24m0-4.08a10.32,10.32,0,1,0,10.33,10.33,10.31,10.31,0,0,0-10.33-10.33Z"/></g><g id="Grupo_104" data-name="Grupo 104"><path id="Trazado_581" data-name="Trazado 581" class="cls-1" d="M105,190.5h-.74l0-4.08a80.75,80.75,0,0,0,64.25-31l3.22,2.5A85.18,85.18,0,0,1,105,190.5Z"/></g></g></svg>