<svg id="Layer_1" data-name="Layer 1" xmlns="http://www.w3.org/2000/svg" viewBox="0 0 200 200"><defs><style>.cls-1{fill:#1a2679;}.cls-2{fill:#00ccb3;}.cls-3{fill:#fff;}.cls-4{fill:#ffbe3b;}</style></defs><circle class="cls-1" cx="16.41" cy="125.77" r="1.89"/><circle class="cls-1" cx="18.81" cy="115.62" r="1.89"/><circle class="cls-1" cx="21.09" cy="105.98" r="1.89"/><polygon class="cls-2" points="71.82 165.77 18.74 171.67 45.9 56.32 98.98 50.43 71.82 165.77"/><polygon class="cls-2" points="169.77 188.83 116.69 194.73 143.85 79.39 196.93 73.49 169.77 188.83"/><polygon class="cls-2" points="143.85 79.39 98.98 50.43 71.82 165.77 116.69 194.73 143.85 79.39"/><path class="cls-1" d="M5,176.94a1.91,1.91,0,0,1-1.87-2.36L12.45,135a1.92,1.92,0,1,1,3.73.88l-8.71,37,49-5.44L82.71,56l-49,5.43L25.33,97a1.92,1.92,0,0,1-3.73-.88l8.68-36.84a1.9,1.9,0,0,1,1.66-1.47L85,51.88a1.88,1.88,0,0,1,1.64.63,1.94,1.94,0,0,1,.43,1.72L59.93,169.57A1.9,1.9,0,0,1,58.27,171l-53.08,5.9Z"/><path class="cls-1" d="M102.94,200a1.92,1.92,0,0,1-1.87-2.37L128.23,82.3a1.9,1.9,0,0,1,1.66-1.48L183,74.92a1.89,1.89,0,0,1,1.64.63,2,2,0,0,1,.43,1.72L157.88,192.61a1.94,1.94,0,0,1-1.66,1.48L103.14,200A.65.65,0,0,1,102.94,200ZM131.66,84.49,105.43,195.87l49-5.44L180.68,79.05ZM156,192.18h0Z"/><path class="cls-3" d="M54.45,54.44c-2.72-6.23-4.58-12-4.58-16.11C49.87,23.67,59.38,8,76.4,8c17.28,0,26.53,15.69,26.53,30.33S80,89.79,76.4,89.79c-1.46,0-9.11-10.78-15.83-23Z"/><path class="cls-1" d="M102.94,200a1.94,1.94,0,0,1-1-.31L57,170.74a1.93,1.93,0,0,1-.83-2.06L74.54,90.81a1.92,1.92,0,0,1,3.73.87l-18,76.55L101.68,195,127.91,83.6,95,62.39a1.92,1.92,0,1,1,2.09-3.23l34,22a1.93,1.93,0,0,1,.83,2.06L104.8,198.51a1.9,1.9,0,0,1-1.15,1.34A1.81,1.81,0,0,1,102.94,200Z"/><path class="cls-4" d="M60,46.44c-2.72-6.24-4.58-12-4.58-16.12C55.41,15.67,64.92,0,81.94,0c17.29,0,26.53,15.68,26.53,30.32s-23,51.47-26.53,51.47c-1.46,0-9.11-10.79-15.82-23Z"/><path class="cls-1" d="M76.41,91.7c-4.27,0-17.37-23.77-17.51-24l-6.16-12.4-.05-.09C49.54,48,48,42.32,48,38.31,48,22.46,58.61,6.07,76.41,6.07c18.48,0,28.45,16.62,28.45,32.24,0,9.44-8.51,25.64-12.16,32.17C89.89,75.46,80.47,91.7,76.41,91.7ZM77,88ZM56.2,53.63l6.1,12.29c6,11,12.07,19.45,14.21,21.63C81,83.37,101,52,101,38.33S92.39,9.92,76.4,9.92c-11.94,0-24.61,10-24.61,28.41C51.8,41.74,53.32,47,56.2,53.63Z"/><circle class="cls-3" cx="76.55" cy="38.9" r="12.03"/><path class="cls-1" d="M76.55,52.85a14,14,0,1,1,14-14A14,14,0,0,1,76.55,52.85Zm0-24.06A10.11,10.11,0,1,0,86.66,38.9,10.11,10.11,0,0,0,76.55,28.79Z"/><path class="cls-1" d="M85.18,154.71c-.82,0-1.68,0-2.53-.11a1.92,1.92,0,0,1,.32-3.82c.76.06,1.49.09,2.21.09h0a21.94,21.94,0,0,0,3.08-.2,1.92,1.92,0,0,1,.51,3.81C87.64,154.64,86.35,154.67,85.18,154.71Zm-13.45-3.09a1.87,1.87,0,0,1-.8-.18,34,34,0,0,1-5.29-3,1.92,1.92,0,1,1,2.19-3.16,29.9,29.9,0,0,0,4.71,2.69,1.92,1.92,0,0,1,.94,2.55A1.86,1.86,0,0,1,71.73,151.62ZM99,150.1a1.94,1.94,0,0,1-1.47-.67,1.9,1.9,0,0,1,.23-2.71,20.72,20.72,0,0,0,3.51-3.9,1.92,1.92,0,0,1,3.14,2.21,25.15,25.15,0,0,1-4.16,4.63A1.93,1.93,0,0,1,99,150.1Zm63.86-.87a1.93,1.93,0,0,1-1.87-1.49,48,48,0,0,0-1.54-5.32,1.93,1.93,0,1,1,3.63-1.29,54.59,54.59,0,0,1,1.66,5.75,1.93,1.93,0,0,1-1.45,2.3A2.18,2.18,0,0,1,162.87,149.23ZM58.73,140.59a1.9,1.9,0,0,1-1.61-.87,28.35,28.35,0,0,1-2.77-5.5,1.92,1.92,0,0,1,3.6-1.35,25,25,0,0,0,2.39,4.76,1.93,1.93,0,0,1-.56,2.66A2.07,2.07,0,0,1,58.73,140.59Zm49.77-4.77a2,2,0,0,1-.9-.23,1.92,1.92,0,0,1-.79-2.6,52.35,52.35,0,0,1,3.08-5.13,1.92,1.92,0,0,1,3.16,2.18,50.21,50.21,0,0,0-2.84,4.76A2,2,0,0,1,108.5,135.82Zm47.41-2.25a1.91,1.91,0,0,1-1.53-.76,30.91,30.91,0,0,0-3.63-4,1.93,1.93,0,0,1,2.6-2.85,35.42,35.42,0,0,1,4.1,4.52,1.94,1.94,0,0,1-1.54,3.1ZM55,124.14a1.05,1.05,0,0,1-.3,0,1.92,1.92,0,0,1-1.6-2.2,42,42,0,0,1,1.38-5.86,1.92,1.92,0,1,1,3.67,1.12,38.88,38.88,0,0,0-1.26,5.34A1.9,1.9,0,0,1,55,124.14Zm87.29-.86a1.67,1.67,0,0,1-.69-.14,32.83,32.83,0,0,0-5.21-1.52,1.92,1.92,0,1,1,.76-3.76,36.13,36.13,0,0,1,5.83,1.7,1.92,1.92,0,0,1,1.09,2.49A1.89,1.89,0,0,1,142.3,123.28Zm-22.38,0a1.92,1.92,0,0,1-.86-3.64,24.43,24.43,0,0,1,4.75-1.79c.35-.09.73-.18,1.16-.26a1.92,1.92,0,1,1,.72,3.77c-.32.06-.61.12-.89.2a21.29,21.29,0,0,0-4,1.5A2,2,0,0,1,119.92,123.27Zm-59-15.3a1.89,1.89,0,0,1-.94-.25,1.92,1.92,0,0,1-.73-2.61,55.59,55.59,0,0,1,3.18-5.06,1.9,1.9,0,0,1,2.67-.44,1.92,1.92,0,0,1,.45,2.67,52.77,52.77,0,0,0-3,4.7A1.87,1.87,0,0,1,60.88,108ZM71.82,94.72a1.92,1.92,0,0,1-1.17-3.44,27.65,27.65,0,0,1,5.26-3.22,1.92,1.92,0,1,1,1.61,3.48A23.66,23.66,0,0,0,73,94.34,2.07,2.07,0,0,1,71.82,94.72Z"/></svg>